<?xml version="1.0" standalone="no"?>
<!DOCTYPE svg PUBLIC "-//W3C//DTD SVG 20010904//EN"
 "http://www.w3.org/TR/2001/REC-SVG-20010904/DTD/svg10.dtd">
<svg version="1.0" xmlns="http://www.w3.org/2000/svg"
 width="998.000000pt" height="997.000000pt" viewBox="0 0 998.000000 997.000000"
 preserveAspectRatio="xMidYMid meet">

<g transform="translate(0.000000,997.000000) scale(0.100000,-0.100000)"
fill="#000000" stroke="none">
<path d="M4796 9962 c-3 -2 -184 -17 -391 -32 -66 -4 -140 -14 -165 -20 -25
-6 -72 -15 -105 -20 -70 -9 -220 -36 -285 -51 -25 -6 -57 -13 -73 -16 -15 -3
-30 -9 -33 -14 -3 -5 -15 -9 -26 -9 -12 0 -35 -4 -52 -9 -17 -5 -51 -15 -76
-21 -46 -12 -81 -25 -112 -41 -10 -5 -25 -9 -35 -9 -26 0 -98 -24 -173 -58
-25 -11 -61 -25 -80 -32 -19 -7 -50 -19 -67 -26 -18 -8 -50 -21 -70 -30 -21
-9 -47 -20 -58 -24 -125 -53 -410 -194 -425 -210 -3 -3 -30 -18 -61 -33 -32
-15 -62 -34 -69 -42 -7 -8 -16 -15 -20 -15 -16 0 -373 -237 -440 -293 -8 -6
-40 -32 -70 -57 -30 -25 -57 -47 -60 -51 -3 -3 -12 -10 -21 -15 -9 -5 -45 -34
-80 -64 -213 -185 -489 -465 -609 -620 -19 -25 -40 -52 -47 -60 -115 -145
-146 -186 -188 -250 -28 -41 -67 -97 -87 -125 -21 -27 -38 -53 -38 -57 0 -4
-27 -47 -59 -96 -33 -49 -74 -118 -91 -153 -18 -35 -35 -66 -39 -69 -8 -7
-139 -278 -171 -355 -4 -11 -15 -37 -24 -57 -9 -21 -23 -55 -32 -75 -9 -21
-19 -47 -24 -58 -4 -11 -12 -31 -18 -45 -6 -14 -16 -43 -23 -65 -7 -22 -17
-44 -21 -49 -4 -6 -8 -20 -8 -32 0 -13 -4 -26 -10 -29 -5 -3 -10 -17 -10 -30
0 -13 -4 -27 -10 -30 -5 -3 -10 -17 -10 -30 0 -13 -4 -27 -10 -30 -5 -3 -10
-17 -10 -30 0 -13 -4 -26 -9 -29 -5 -3 -11 -20 -14 -38 -3 -18 -10 -51 -17
-73 -12 -43 -19 -71 -44 -180 -26 -111 -36 -165 -45 -245 -5 -41 -15 -91 -21
-110 -14 -40 -21 -84 -44 -260 -18 -142 -23 -850 -7 -968 5 -37 15 -114 21
-172 11 -95 33 -212 60 -311 6 -20 10 -51 10 -68 0 -54 32 -187 111 -456 31
-103 99 -303 122 -355 10 -25 25 -58 32 -75 7 -16 30 -70 51 -120 107 -254
297 -592 477 -849 774 -1105 1960 -1852 3277 -2065 311 -50 366 -53 885 -49
458 4 488 6 645 31 569 90 1002 225 1485 462 941 461 1696 1189 2204 2123 157
289 321 692 401 986 10 39 26 96 34 126 22 78 62 265 86 400 78 443 91 1012
34 1465 -21 172 -75 473 -93 525 -4 12 -22 88 -27 115 -3 17 -11 36 -16 43 -6
6 -8 12 -5 12 5 0 -16 84 -30 120 -3 8 -8 23 -9 32 -17 83 -152 437 -244 638
-83 181 -251 490 -272 498 -4 2 -8 9 -8 15 0 16 -181 287 -191 287 -5 0 -9 6
-9 13 0 7 -8 22 -17 33 -10 11 -51 63 -91 116 -163 216 -448 519 -647 687 -27
23 -70 60 -95 81 -87 74 -225 183 -265 209 -22 14 -42 29 -45 32 -5 6 -122 84
-272 181 -140 90 -495 276 -628 329 -119 47 -257 102 -275 109 -11 5 -60 22
-110 38 -315 102 -532 156 -740 184 -38 5 -99 14 -135 19 -36 6 -121 14 -190
18 -69 5 -195 14 -280 20 -146 10 -449 19 -454 13z m519 -62 c868 -63 1657
-328 2370 -795 450 -294 869 -681 1201 -1110 304 -392 572 -874 728 -1310 20
-55 40 -109 45 -120 4 -11 13 -36 19 -55 6 -19 24 -80 41 -135 28 -91 79 -293
102 -405 5 -25 23 -133 39 -240 17 -107 36 -226 43 -265 8 -47 12 -203 12
-470 0 -380 -3 -434 -25 -565 -6 -30 -19 -122 -30 -205 -11 -82 -25 -175 -31
-205 -21 -104 -70 -305 -94 -385 -13 -44 -29 -100 -35 -125 -7 -25 -16 -53
-21 -62 -5 -10 -9 -25 -9 -33 0 -8 -5 -24 -10 -35 -5 -11 -14 -29 -20 -40 -5
-11 -10 -27 -10 -35 0 -8 -4 -23 -9 -33 -8 -16 -14 -30 -40 -94 -5 -13 -17
-43 -26 -68 -50 -134 -154 -347 -276 -565 -19 -33 -45 -82 -59 -110 -14 -27
-42 -72 -62 -100 -21 -27 -38 -54 -38 -59 0 -5 -17 -32 -38 -60 -78 -104 -119
-162 -137 -193 -11 -18 -23 -33 -26 -33 -4 0 -10 -8 -13 -17 -3 -10 -16 -29
-28 -43 -13 -14 -36 -41 -52 -60 -87 -105 -249 -282 -352 -385 -149 -148 -400
-371 -500 -443 -183 -133 -229 -167 -234 -172 -3 -3 -18 -12 -35 -20 -16 -7
-61 -35 -100 -60 -38 -26 -95 -60 -125 -77 -30 -16 -73 -41 -95 -54 -22 -14
-60 -33 -85 -44 -25 -11 -61 -28 -80 -40 -32 -19 -54 -30 -120 -59 -14 -6 -47
-23 -73 -38 -26 -16 -54 -28 -63 -28 -8 0 -22 -4 -32 -9 -93 -48 -149 -71
-168 -71 -12 0 -26 -5 -29 -10 -3 -6 -15 -10 -25 -10 -11 0 -48 -14 -82 -30
-34 -17 -68 -30 -77 -30 -8 0 -28 -4 -45 -10 -191 -59 -226 -69 -316 -89 -57
-12 -86 -20 -130 -33 -47 -13 -120 -27 -205 -38 -38 -5 -95 -14 -125 -20 -30
-6 -77 -15 -105 -21 -112 -22 -308 -32 -640 -32 -350 -1 -522 7 -560 23 -11 5
-40 11 -65 13 -219 21 -850 169 -1005 237 -11 5 -85 34 -165 65 -181 70 -183
71 -370 163 -171 84 -398 213 -533 304 -48 32 -94 61 -103 65 -9 3 -30 19 -47
34 -17 16 -37 29 -44 29 -7 0 -13 4 -13 8 0 5 -30 30 -67 58 -142 103 -265
211 -474 411 -119 115 -217 212 -218 216 -1 4 -29 40 -64 80 -145 167 -354
449 -468 634 -222 357 -418 799 -535 1202 -452 1559 -125 3216 883 4473 871
1087 2164 1757 3553 1841 132 8 497 6 625 -3z"/>
<path d="M4665 9759 c-161 -9 -367 -33 -495 -59 -52 -10 -129 -24 -213 -36
-20 -4 -40 -10 -43 -15 -3 -5 -20 -9 -39 -9 -19 0 -36 -4 -39 -9 -3 -5 -22
-12 -41 -15 -19 -3 -51 -9 -70 -12 -19 -3 -38 -10 -41 -15 -3 -5 -16 -9 -29
-9 -13 0 -27 -4 -30 -10 -3 -5 -16 -10 -28 -10 -12 0 -74 -19 -137 -41 -63
-23 -125 -43 -138 -46 -12 -3 -25 -9 -28 -14 -3 -5 -13 -9 -24 -9 -10 0 -35
-8 -57 -19 -49 -24 -132 -61 -158 -71 -11 -4 -49 -21 -84 -39 -35 -17 -70 -31
-77 -31 -8 0 -14 -4 -14 -10 0 -5 -7 -10 -15 -10 -9 0 -26 -7 -38 -14 -12 -8
-59 -34 -104 -58 -148 -78 -321 -183 -343 -209 -3 -3 -25 -16 -50 -30 -25 -13
-47 -26 -50 -29 -3 -3 -21 -17 -40 -30 -19 -14 -44 -33 -55 -43 -11 -10 -56
-44 -101 -75 -147 -103 -235 -182 -514 -462 -163 -163 -264 -273 -330 -360
-19 -25 -43 -54 -52 -64 -10 -11 -18 -26 -18 -33 0 -7 -3 -13 -7 -13 -5 0 -19
-17 -33 -38 -14 -20 -33 -46 -43 -57 -29 -31 -77 -102 -77 -114 0 -6 -4 -11
-10 -11 -5 0 -10 -5 -10 -11 0 -6 -24 -45 -53 -87 -29 -43 -59 -90 -67 -107
-8 -16 -20 -37 -26 -45 -7 -8 -33 -55 -58 -103 -25 -48 -53 -100 -63 -115 -18
-26 -57 -107 -73 -147 -13 -33 -41 -97 -66 -149 -13 -28 -24 -53 -24 -58 0 -4
-11 -31 -24 -60 -13 -29 -38 -96 -55 -148 -18 -52 -36 -103 -41 -112 -6 -10
-10 -27 -10 -37 0 -11 -5 -23 -10 -26 -6 -3 -10 -15 -10 -26 0 -10 -4 -27 -9
-37 -18 -35 -51 -151 -71 -252 -12 -60 -27 -125 -40 -180 -89 -359 -121 -1053
-69 -1475 28 -232 58 -402 109 -615 5 -25 13 -60 16 -78 4 -18 11 -35 15 -38
5 -3 9 -16 9 -29 0 -13 4 -34 9 -47 5 -13 19 -57 31 -98 12 -41 26 -79 31 -84
5 -6 9 -20 9 -32 0 -13 5 -26 10 -29 6 -3 10 -15 10 -26 0 -10 4 -27 9 -37 6
-9 26 -60 44 -112 19 -52 49 -126 66 -163 17 -37 31 -70 31 -73 0 -2 35 -75
79 -162 407 -814 1041 -1498 1820 -1966 1238 -743 2745 -888 4106 -394 854
309 1593 852 2170 1593 97 125 280 401 370 560 204 357 372 784 475 1200 73
295 127 647 125 818 0 37 3 67 7 67 4 0 8 115 8 255 0 197 -3 255 -12 255 -9
0 -8 4 2 10 8 5 11 10 5 10 -6 0 -11 39 -11 94 -6 381 -157 1033 -343 1476
-82 195 -216 463 -295 590 -12 19 -28 47 -35 63 -8 15 -18 27 -22 27 -4 0 -9
10 -13 23 -3 13 -17 36 -30 50 -14 15 -23 27 -20 27 15 0 -173 259 -315 435
-116 144 -466 500 -606 617 -168 140 -449 342 -555 399 -25 13 -49 29 -55 35
-14 15 -218 131 -335 189 -116 58 -359 165 -375 165 -6 0 -29 9 -51 19 -52 26
-234 91 -309 111 -16 5 -61 18 -100 30 -38 11 -90 25 -115 31 -25 5 -61 14
-80 19 -399 103 -931 147 -1445 119z m305 -4013 c0 -200 0 -205 -22 -220 -30
-21 -44 -20 -68 4 -19 19 -20 33 -20 220 l0 200 55 0 55 0 0 -204z m148 45 c3
-173 -5 -201 -56 -201 -49 0 -52 11 -52 193 l0 168 53 -3 52 -3 3 -154z m-300
84 l3 -41 -53 6 c-46 4 -53 8 -56 28 -6 44 4 53 55 50 l48 -3 3 -40z m442
-110 c0 -110 -1 -115 -24 -130 -28 -19 -58 -9 -76 25 -11 21 -14 203 -3 213 3
4 28 7 55 7 l48 0 0 -115z m60 74 c0 -5 -4 -9 -10 -9 -5 0 -10 7 -10 16 0 8 5
12 10 9 6 -3 10 -10 10 -16z m-522 -45 c18 -13 22 -25 22 -74 l0 -59 -32 -3
-33 -3 -3 -80 -3 -81 35 -16 c41 -20 81 -71 91 -115 8 -39 35 -45 35 -8 0 41
-24 88 -64 123 -20 17 -41 32 -47 32 -6 0 -9 10 -7 22 4 27 38 38 38 13 0 -9
11 -27 25 -40 43 -44 124 -26 145 31 9 22 14 24 48 18 34 -5 44 -2 75 25 21
19 38 27 42 21 3 -5 23 -10 44 -10 27 0 44 7 61 25 47 50 50 40 50 -151 0
-193 -8 -226 -58 -261 -24 -16 -56 -18 -289 -21 l-263 -3 0 46 c0 42 -2 46
-29 51 -16 4 -40 17 -53 31 -22 24 -23 30 -26 243 -3 210 -2 220 17 239 17 17
34 21 89 21 45 0 75 -5 90 -16z m-228 -24 c0 -17 -7 -20 -43 -20 -48 0 -58 5
-50 26 3 9 21 14 49 14 37 0 44 -3 44 -20z m840 0 c-8 -16 -21 -20 -60 -20
-43 0 -50 3 -50 20 0 18 7 20 60 20 58 0 60 -1 50 -20z m74 -23 c8 -12 5 -21
-9 -37 l-19 -21 -12 23 c-23 43 14 76 40 35z m-916 -49 c3 -15 -4 -18 -42 -18
-25 0 -48 5 -51 10 -12 20 7 31 48 28 30 -2 43 -8 45 -20z m842 2 c10 -19 8
-20 -50 -20 -53 0 -60 2 -60 20 0 17 7 20 50 20 39 0 52 -4 60 -20z m-603 -97
c-15 -16 -17 -16 -17 -1 0 9 6 18 13 21 20 7 22 -2 4 -20z m421 -565 l3 -108
-261 0 -260 0 0 103 c0 57 3 107 7 111 4 3 119 5 257 4 l251 -3 3 -107z
m-1068 -322 c44 -22 110 -94 110 -122 0 -21 -37 -54 -61 -54 -12 0 -37 17 -58
39 -60 66 -106 74 -214 41 -108 -33 -157 -115 -157 -259 1 -145 96 -241 240
-241 69 0 108 14 164 59 43 35 67 39 90 15 29 -29 20 -68 -27 -111 -60 -55
-102 -68 -227 -68 -97 0 -110 2 -170 31 -93 44 -133 83 -163 157 -34 84 -40
139 -27 220 32 199 121 294 297 315 92 11 149 5 203 -22z m358 14 c60 -37 33
-110 -42 -110 -56 0 -79 44 -56 104 12 32 51 35 98 6z m1768 -5 c53 -34 18
-105 -53 -105 -56 0 -77 42 -53 106 9 24 14 26 46 21 20 -3 47 -13 60 -22z
m-3878 -15 c84 -36 123 -97 86 -134 -23 -23 -47 -20 -104 16 -101 63 -230 49
-312 -33 -98 -98 -105 -281 -15 -377 65 -71 201 -90 286 -42 50 29 81 81 81
138 0 37 -2 40 -32 46 -18 3 -61 5 -96 5 -68 -1 -92 11 -92 46 0 42 20 47 159
44 122 -4 131 -5 156 -29 25 -23 27 -29 23 -95 -8 -122 -65 -214 -160 -256
-44 -19 -71 -23 -153 -23 -88 -1 -107 2 -155 25 -79 37 -125 81 -162 156 -52
107 -49 231 9 346 31 63 94 130 141 153 102 49 246 55 340 14z m989 -50 c8
-17 11 -47 6 -92 l-6 -68 65 7 c52 4 67 2 81 -11 21 -21 21 -36 3 -61 -10 -14
-31 -20 -87 -24 l-74 -6 -3 -69 c-7 -163 26 -245 93 -231 71 15 80 12 83 -22
3 -28 -2 -36 -30 -53 -47 -29 -120 -27 -174 5 -59 35 -76 88 -78 248 l-1 122
-30 3 c-16 2 -36 8 -42 14 -34 28 5 78 59 78 l28 0 0 79 c0 71 2 82 23 96 31
22 69 15 84 -15z m1463 15 c8 -10 11 -41 8 -95 l-3 -80 56 6 c66 7 99 -6 99
-40 0 -35 -24 -49 -98 -55 l-67 -6 0 -110 c0 -130 7 -159 41 -181 21 -14 31
-15 65 -5 67 20 94 -22 43 -70 -22 -20 -35 -24 -93 -24 -58 0 -73 4 -102 26
-48 37 -60 80 -66 236 l-6 132 -36 3 c-34 3 -36 5 -36 38 0 33 3 36 40 45 22
5 43 14 47 20 4 5 8 40 8 77 0 47 5 71 16 82 20 20 68 21 84 1z m1028 3 c7 -7
12 -44 12 -95 l0 -83 58 6 c47 5 61 3 80 -12 20 -16 22 -23 13 -46 -10 -27
-29 -33 -131 -40 l-35 -3 -3 -65 c-6 -112 7 -189 35 -217 25 -25 31 -26 105
-7 32 7 44 -11 34 -51 -20 -79 -208 -69 -250 14 -22 42 -38 155 -34 246 l3 80
-30 3 c-41 5 -57 20 -53 51 3 22 10 28 48 37 l45 11 3 74 c2 50 8 79 19 91 18
21 63 24 81 6z m-2859 -193 c94 -48 108 -197 24 -252 -35 -23 -123 -32 -202
-21 -35 4 -66 6 -68 4 -9 -8 27 -71 47 -84 35 -21 101 -25 164 -9 74 20 99 10
94 -36 -8 -89 -241 -105 -344 -25 -43 34 -74 112 -74 189 0 160 115 267 273
254 32 -3 71 -11 86 -20z m1505 3 c21 -33 26 -456 5 -469 -19 -12 -56 -11 -79
1 -24 13 -28 45 -34 273 -5 167 -4 179 15 198 27 27 75 25 93 -3z m882 7 c55
-16 115 -70 134 -120 7 -18 10 -75 9 -142 -2 -64 1 -117 6 -122 6 -5 23 -11
39 -13 16 -2 34 -11 40 -21 9 -15 6 -23 -17 -43 -36 -31 -98 -32 -146 -3 -32
19 -35 20 -70 3 -21 -11 -69 -19 -116 -22 -71 -3 -84 -1 -115 20 -67 45 -88
128 -47 188 47 70 184 109 275 77 42 -15 42 -14 42 9 0 43 -19 75 -55 89 -48
21 -77 19 -145 -10 -73 -31 -78 -31 -92 0 -14 31 8 67 55 91 67 35 129 41 203
19z m881 -15 c18 -39 20 -450 2 -461 -21 -13 -63 -11 -84 5 -18 13 -20 34 -28
233 -8 218 -8 218 14 236 32 26 81 19 96 -13z m510 -1 c55 -29 102 -92 114
-151 12 -65 -6 -165 -39 -213 -86 -123 -264 -140 -370 -35 -46 46 -78 145 -69
212 7 53 55 146 88 170 71 53 191 61 276 17z m329 12 c17 -10 36 -32 43 -49
l13 -30 34 38 c64 71 179 77 246 15 53 -49 63 -81 64 -195 0 -150 0 -148 38
-171 29 -17 34 -24 27 -42 -17 -47 -91 -58 -134 -19 -33 29 -40 63 -41 189 -1
114 -2 123 -25 147 -28 30 -67 34 -110 11 -47 -24 -71 -114 -71 -264 0 -54 -5
-92 -12 -99 -17 -17 -59 -15 -87 4 -22 16 -23 21 -16 88 4 39 6 111 6 160 -1
106 -17 142 -58 131 -58 -14 -74 52 -20 85 40 25 64 25 103 1z m834 9 c50 -14
100 -62 100 -97 0 -56 -49 -71 -90 -28 -31 33 -100 43 -146 21 -62 -29 -44
-53 61 -86 163 -50 195 -75 195 -149 0 -42 -5 -56 -30 -85 -37 -42 -103 -66
-179 -66 -83 0 -124 15 -165 60 -39 43 -46 79 -20 104 25 25 51 19 80 -19 44
-59 139 -71 196 -26 22 18 22 20 5 39 -10 10 -48 27 -85 37 -79 21 -150 55
-175 83 -26 28 -33 92 -14 128 24 46 54 67 115 80 72 15 108 16 152 4z"/>
<path d="M5080 4980 c0 -13 7 -20 20 -20 13 0 20 7 20 20 0 13 -7 20 -20 20
-13 0 -20 -7 -20 -20z"/>
<path d="M5152 4983 c5 -26 38 -29 38 -4 0 15 -6 21 -21 21 -14 0 -19 -5 -17
-17z"/>
<path d="M2854 4391 c-33 -20 -64 -57 -64 -77 0 -18 109 -28 157 -15 22 6 46
18 53 26 27 33 -25 85 -87 85 -15 0 -42 -9 -59 -19z"/>
<path d="M5290 4220 c-38 -9 -70 -42 -70 -70 0 -52 84 -66 171 -29 43 19 49
25 49 50 0 21 -6 32 -22 38 -40 15 -92 19 -128 11z"/>
<path d="M6640 4407 c-55 -19 -83 -82 -77 -171 4 -63 8 -73 36 -98 30 -27 49
-32 101 -28 64 5 110 67 110 148 0 117 -74 182 -170 149z"/>
</g>
</svg>
