
<svg height="240" viewBox="0 0 355 240" width="355" xmlns="http://www.w3.org/2000/svg" xmlns:xlink="http://www.w3.org/1999/xlink"><linearGradient id="a"><stop offset="0" stop-color="#546db4"/><stop offset=".5" stop-color="#5089b9"/><stop offset="1" stop-color="#546db4"/></linearGradient><linearGradient id="b" x1="41.693197%" x2="58.14688%" xlink:href="#a" y1="84.099818%" y2="15.071076%"/><linearGradient id="c" x1="37.980591%" x2="64.727383%" y1="1.779413%" y2="96.925528%"><stop offset="0" stop-color="#49c2c2"/><stop offset="1" stop-color="#5280b7"/></linearGradient><linearGradient id="d"><stop offset="0" stop-color="#5280b7"/><stop offset="1" stop-color="#49c2c2"/></linearGradient><linearGradient id="e" x1="39.206192%" x2="62.292662%" xlink:href="#d" y1="87.201744%" y2="10.693382%"/><linearGradient id="f" x1="40.799752%" x2="58.495648%" xlink:href="#a" y1="83.532491%" y2="13.066216%"/><linearGradient id="g" x1="19.362851%" x2="86.312425%" y1="102.914167%" y2="20.511149%"><stop offset="0" stop-color="#5089b9"/><stop offset="1" stop-color="#546db4"/></linearGradient><linearGradient id="h" x1="43.005868%" x2="62.833617%" xlink:href="#d" y1="82.722018%" y2="19.259859%"/><linearGradient id="i"><stop offset="0" stop-color="#546db4" stop-opacity=".6"/><stop offset="1" stop-color="#3f5287"/></linearGradient><linearGradient id="j" x1="43.896966%" x2="67.681405%" xlink:href="#i" y1="70.801638%" y2="18.244588%"/><linearGradient id="k" x1="43.544019%" x2="64.162729%" xlink:href="#i" y1="72.599584%" y2="18.700537%"/><linearGradient id="l" x1="34.407083%" x2="57.118411%" xlink:href="#i" y1="7.915112%" y2="97.751628%"/><linearGradient id="m" x1="39.112267%" x2="56.534483%" xlink:href="#i" y1="8.197186%" y2="95.513878%"/><linearGradient id="n" x1="46.943551%" x2="81.251828%" xlink:href="#i" y1="66.390523%" y2="21.166234%"/><g fill="none" fill-rule="nonzero"><path d="m173.710394 71.5869573-8.29001 47.1582127 13.998174 79.422509c.422666 1.638588 1.179048 3.17228 2.221793 4.505059 2.582163 2.983145 6.303971 4.737211 10.248349 4.829984 3.512407.051496 6.919388-1.19992 9.563369-3.512716 1.463399-1.343279 2.460146-3.118351 2.8453-5.067093l.878179-4.979275 7.94752-45.296473 1.940776-11.003583-11.056274-62.7722352c-.790361-5.6554728-3.960587-8.4041731-3.960587-8.4041731-3.239337-3.2236341-7.675462-4.9516228-12.241816-4.768512-3.026839.1115609-5.973386 1.0039956-8.553463 2.590628-2.779262 1.5709978-4.794315 4.2111922-5.576437 7.3064494" fill="url(#b)"/><path d="m204.341278 198.887786c-.385154 1.948741-1.381901 3.723814-2.8453 5.067093-2.643981 2.312796-6.050962 3.564212-9.563369 3.512716-3.944378-.092774-7.666187-1.846839-10.248349-4.829984-1.042745-1.332779-1.799127-2.866471-2.221793-4.505059l-19.908318-112.7933114-8.167065-45.6126177c-1.516923-10.6314076-6.97406-20.3044257-15.289097-27.1006042-8.536557-6.86543094-19.158005-10.61654614-30.112758-10.6347478-13.471266-.42152592-24.5275397 5.91014472-24.5275397 5.91014472-17.2474357 8.78179008-19.9785724 24.93150208-19.9785724 24.93150208l-.9308697 5.269074c.6471244-3.1309811 2.30382-5.9630975 4.7158212-8.0616833 3.9869327-3.3985527 7.8509204-5.0846564 14.8060981-5.269074 0 0 9.3350429.2019811 14.683153 7.1747225 0 0 2.8101728 2.634537 4.0747506 9.7829141l2.3447379 13.2956302 27.76802 156.4475898s1.343614 12.435015 13.875229 21.787622c0 0 9.782914 7.192286 21.076296 7.227736 11.293382.034804 20.865533-2.792932 29.735141-10.933652 0 0 6.27898-5.892581 7.569903-13.216594z" fill="url(#c)"/><path d="m173.710394 71.5869573.825488-4.7246031c1.484394-6.1998517 4.945998-11.7482823 9.861951-15.8072221 7.787243-6.2751541 17.51295-9.6495058 27.513348-9.5458058 9.735995.0080143 19.141553 3.5319802 26.485879 9.9234228 8.210974 7.025432 10.669875 15.2364057 12.057398 23.4034705l17.273781 98.2243224 1.17676 6.682942c.185806.97996.635137 1.890766 1.299705 2.634537 1.205416 1.329631 2.912392 2.093948 4.707039 2.10763 1.701119-.037207 3.337919-.657207 4.636785-1.756358.736239-.73524 1.211273-1.691477 1.352396-2.722355l-.061473.324926-1.457777 8.465645c-1.703749 5.823057-5.580312 10.768583-10.827947 13.813756-5.194393 3.062403-11.130238 4.639017-17.159618 4.557749-13.040958-.447871-19.96979-7.903611-19.96979-7.903611-7.341577-6.86736-8.052902-14.71828-8.052902-14.71828l-6.814669-38.639876-12.514051-71.0534638c-.790361-5.6554728-3.960587-8.4041731-3.960587-8.4041731-3.239336-3.2236341-7.675462-4.9516228-12.241816-4.768512-3.026839.1115609-5.973386 1.0039956-8.553463 2.590628-2.78116 1.5730028-4.79647 4.2167094-5.576437 7.3152312z" fill="url(#e)"/><path d="m261.984948 99.1705599c1.146623-2.6358698 3.135796-4.8165476 5.655473-6.1999438 2.331499-1.2306 4.933761-1.858524 7.569903-1.8266123 4.034608.0275833 7.86675 1.7712078 10.538148 4.7948574 1.282687 1.6032489 2.234834 3.4448637 2.801391 5.4183648l3.099972 17.502107-4.074751 23.043417-6.709287 38.50815.05269-.316144c-.137453 1.030168-.609526 1.986654-1.343613 2.722354-1.301047 1.095445-2.93649 1.714931-4.636786 1.756358-1.795394-.02185-3.501974-.784567-4.715821-2.107629-.672933-.75974-1.1254-1.688968-1.308487-2.687228l-1.299705-6.67416-9.475551-54.561262 3.846424-19.3638473" fill="url(#f)"/><path d="m60.6360651 37.8648834c.6335291-3.1176296 2.2827047-5.9372875 4.6894759-8.0177744 3.9869327-3.3897709 7.903611-4.9178024 14.8324434-5.1110018 0 0 9.2999157.2019812 14.6480259 7.1747225 0 0 2.7750456 2.634537 4.0484052 9.7829142l2.3271745 13.2956301 7.94752 44.7871294-3.890333 22.0335116c-1.340362 6.553907-4.285282 12.673065-8.5710272 17.80947-8.3944117 9.581286-20.535992 15.044836-33.2742027 14.973653h-59.76008145l.12294506-.158773c12.61943239-.114163 23.26296189-4.557749 31.51784459-12.970704s10.3537305-19.583392 10.3537305-19.583392l4.2416046-24.0445412z" fill="url(#g)"/><path d="m294.442444 134.991482s-.166854 5.506182 7.376704 12.531614c7.543557 7.025432 20.909442 7.025432 20.909442 7.025432l32.044752-.070254c-10.265913 0-18.617395-6.208726-18.617395-6.208726-1.31621-.93719-2.521247-2.021428-3.591752-3.231698-2.541396-2.82758-4.247043-6.305764-4.926584-10.046368v.184417l-6.349235-36.0053391c-1.158889-6.9256039-4.833223-13.1797898-10.318603-17.5635801-5.44176-4.2114921-12.105749-6.5386484-18.98623-6.6302515-7.805556-.0753333-15.402663 2.5179695-21.532949 7.3503583-3.973661 3.1145681-6.697253 7.5520915-7.675285 12.505269l-.790361 4.311859c1.14824-2.6326049 3.137244-4.8100079 5.655473-6.191162 2.34853-1.2272735 4.964095-1.8547676 7.613812-1.8266124 4.040856.0331325 7.875187 1.7905344 10.538148 4.8299846 1.28356 1.5955249 2.227858 3.4363083 2.775046 5.4095822l5.945271 33.572784" fill="url(#h)"/><path d="m89.8267353 48.2888682 19.3199377 51.5315442-7.94752-44.7871294-2.3271739-13.2956302c-1.2733596-7.1747225-4.0484053-9.7829141-4.0484053-9.7829141-5.3481101-6.9727414-14.6480258-7.1747225-14.6480258-7.1747225-6.946396.1931993-10.8455108 1.756358-14.8324435 5.1110018-2.4001405 2.0713909-4.0487242 4.8776879-4.6894759 7.9826472 21.2080231-12.4174512 29.1731067 10.415203 29.1731067 10.415203z" fill="url(#j)" opacity=".9"/><path d="m173.605013 72.3246277c3.512716-2.7487003 7.973865-4.1801321 12.171561-2.1164115 3.837642 1.8968667 6.358016 5.5325278 7.798229 9.4228608.992343 2.678446 2.142757 5.5500913 3.135099 8.2285373 1.446068 3.9166784 2.892137 7.836284 4.338205 11.7588169l4.873893 13.1726848 4.531404 12.294506 3.345862 9.054026c.430308 1.185542.878179 2.362302 1.308487 3.512716l-11.056274-62.7722354c-.790361-5.6554728-3.960587-8.4041731-3.960587-8.4041731-3.239337-3.2236341-7.675462-4.9516228-12.241816-4.7685121-3.026839.1115609-5.973386 1.0039957-8.553463 2.5906281-2.779263 1.5709978-4.794315 4.2111922-5.576437 7.3064494z" fill="url(#k)" opacity=".9"/><path d="m165.420384 118.74517 13.629338 77.833005c.278223 2.625258 1.435659 5.079396 3.28439 6.96396 2.683578 2.671613 6.359315 4.103718 10.142968 3.951806 2.510471-.090179 4.954907-.828351 7.095686-2.142757 2.301469-1.305569 3.97-3.494327 4.619221-6.059435l.0966-.614726c-2.924336 2.283266-6.612688 3.468807-10.090277 1.756358-7.429394-3.662006-9.826823-14.200154-11.837853-21.427567-1.756358-6.24678-3.512716-12.484779-5.269074-18.713995-3.700061-13.166831-7.403049-26.339516-11.108964-39.518055-.175636-.649853-.447871-1.352396-.562035-2.028594z" fill="url(#l)" opacity=".9"/><path d="m258.138524 118.543189 6.147253 35.46965 4.426022 25.124701c.130386 1.270486.687617 2.459247 1.580722 3.372208 1.299275 1.292487 3.077764 1.986066 4.909021 1.91443 1.214479-.045285 2.396906-.40213 3.43368-1.036251 1.111232-.633951 1.916548-1.69291 2.230575-2.933118l.043909-.298581c-1.308963 1.228922-3.21832 1.572951-4.873894.878179-1.484543-.815177-2.60254-2.165568-3.126317-3.77617z" fill="url(#m)" opacity=".9"/><path d="m291.641053 118.859333-4.118659-6.419488c-2.476465-4.663131-4.145005-9.106717-8.5359-12.338415-3.687786-2.8709825-8.600109-3.6254462-12.979486-1.9934667-1.556584.641325-3.030722 1.4668421-4.390895 2.4589017l.298581-1.3699597c1.146623-2.6358699 3.135796-4.8165476 5.655473-6.1999438 2.331499-1.2306 4.93376-1.858524 7.569903-1.8266123 4.034608.0275833 7.86675 1.7712078 10.538148 4.7948573 1.282686 1.6032489 2.234834 3.4448637 2.801391 5.4183645l3.099972 17.502108" fill="url(#n)" opacity=".9"/></g></svg>